<?xml version="1.0" encoding="UTF-8" standalone="no"?><svg xmlns="http://www.w3.org/2000/svg" xmlns:xlink="http://www.w3.org/1999/xlink" contentScriptType="application/ecmascript" contentStyleType="text/css" height="694px" preserveAspectRatio="none" style="width:1300px;height:694px;background:#FFFFFF;" version="1.1" viewBox="0 0 1300 694" width="1300px" zoomAndPan="magnify"><defs><filter height="300%" id="f6m40mxy0f6at" width="300%" x="-1" y="-1"><feGaussianBlur result="blurOut" stdDeviation="2.0"/><feColorMatrix in="blurOut" result="blurOut2" type="matrix" values="0 0 0 0 0 0 0 0 0 0 0 0 0 0 0 0 0 0 .4 0"/><feOffset dx="4.0" dy="4.0" in="blurOut2" result="blurOut3"/><feBlend in="SourceGraphic" in2="blurOut3" mode="normal"/></filter></defs><g><!--MD5=[335f4d9be48430461c68bf6d6fdba145]
class App--><rect codeLine="1" fill="#FEFECE" filter="url(#f6m40mxy0f6at)" height="48" id="App" style="stroke:#A80036;stroke-width:1.5;" width="56" x="655.3103" y="7"/><ellipse cx="670.3103" cy="23" fill="#ADD1B2" rx="11" ry="11" style="stroke:#A80036;stroke-width:1.0;"/><path d="M672.6541,18.6719 C671.7166,18.2344 671.1228,18.0938 670.2478,18.0938 C667.6228,18.0938 665.6228,20.1719 665.6228,22.8906 L665.6228,24.0156 C665.6228,26.5938 667.7322,28.4844 670.6228,28.4844 C671.8416,28.4844 672.9978,28.1875 673.7478,27.6406 C674.3259,27.2344 674.6541,26.7813 674.6541,26.3906 C674.6541,25.9375 674.2634,25.5469 673.7947,25.5469 C673.5759,25.5469 673.3728,25.625 673.1853,25.8125 C672.7322,26.2969 672.7322,26.2969 672.5447,26.3906 C672.1228,26.6563 671.4353,26.7813 670.6697,26.7813 C668.6228,26.7813 667.3259,25.6875 667.3259,23.9844 L667.3259,22.8906 C667.3259,21.1094 668.5759,19.7969 670.3103,19.7969 C670.8884,19.7969 671.4978,19.9531 671.9666,20.2031 C672.4509,20.4844 672.6228,20.7031 672.7166,21.1094 C672.7791,21.5156 672.8103,21.6406 672.9509,21.7656 C673.0916,21.9063 673.3259,22.0156 673.5447,22.0156 C673.8103,22.0156 674.0759,21.875 674.2478,21.6563 C674.3572,21.5 674.3884,21.3125 674.3884,20.8906 L674.3884,19.4688 C674.3884,19.0313 674.3728,18.9063 674.2791,18.75 C674.1228,18.4844 673.8416,18.3438 673.5447,18.3438 C673.2478,18.3438 673.0447,18.4375 672.8259,18.75 L672.6541,18.6719 Z " fill="#000000"/><text fill="#000000" font-family="sans-serif" font-size="12" lengthAdjust="spacing" textLength="24" x="684.3103" y="27.1543">App</text><line style="stroke:#A80036;stroke-width:1.5;" x1="656.3103" x2="710.3103" y1="39" y2="39"/><line style="stroke:#A80036;stroke-width:1.5;" x1="656.3103" x2="710.3103" y1="47" y2="47"/><!--MD5=[7e38e3f63d3b33d810bc19b0325c44f6]
class TetrisGame--><rect codeLine="3" fill="#FEFECE" filter="url(#f6m40mxy0f6at)" height="48" id="TetrisGame" style="stroke:#A80036;stroke-width:1.5;" width="101" x="228.8103" y="132"/><ellipse cx="243.8103" cy="148" fill="#ADD1B2" rx="11" ry="11" style="stroke:#A80036;stroke-width:1.0;"/><path d="M246.154,143.6719 C245.2165,143.2344 244.6228,143.0938 243.7478,143.0938 C241.1228,143.0938 239.1228,145.1719 239.1228,147.8906 L239.1228,149.0156 C239.1228,151.5938 241.2322,153.4844 244.1228,153.4844 C245.3415,153.4844 246.4978,153.1875 247.2478,152.6406 C247.8259,152.2344 248.154,151.7813 248.154,151.3906 C248.154,150.9375 247.7634,150.5469 247.2947,150.5469 C247.0759,150.5469 246.8728,150.625 246.6853,150.8125 C246.2322,151.2969 246.2322,151.2969 246.0447,151.3906 C245.6228,151.6563 244.9353,151.7813 244.1697,151.7813 C242.1228,151.7813 240.8259,150.6875 240.8259,148.9844 L240.8259,147.8906 C240.8259,146.1094 242.0759,144.7969 243.8103,144.7969 C244.3884,144.7969 244.9978,144.9531 245.4665,145.2031 C245.9509,145.4844 246.1228,145.7031 246.2165,146.1094 C246.279,146.5156 246.3103,146.6406 246.4509,146.7656 C246.5915,146.9063 246.8259,147.0156 247.0447,147.0156 C247.3103,147.0156 247.5759,146.875 247.7478,146.6563 C247.8572,146.5 247.8884,146.3125 247.8884,145.8906 L247.8884,144.4688 C247.8884,144.0313 247.8728,143.9063 247.779,143.75 C247.6228,143.4844 247.3415,143.3438 247.0447,143.3438 C246.7478,143.3438 246.5447,143.4375 246.3259,143.75 L246.154,143.6719 Z " fill="#000000"/><text fill="#000000" font-family="sans-serif" font-size="12" lengthAdjust="spacing" textLength="69" x="257.8103" y="152.1543">TetrisGame</text><line style="stroke:#A80036;stroke-width:1.5;" x1="229.8103" x2="328.8103" y1="164" y2="164"/><line style="stroke:#A80036;stroke-width:1.5;" x1="229.8103" x2="328.8103" y1="172" y2="172"/><!--MD5=[1f24f7b92150e3316908f7910ce81742]
class Grid--><rect codeLine="4" fill="#FEFECE" filter="url(#f6m40mxy0f6at)" height="48" id="Grid" style="stroke:#A80036;stroke-width:1.5;" width="57" x="401.8103" y="507"/><ellipse cx="416.8103" cy="523" fill="#ADD1B2" rx="11" ry="11" style="stroke:#A80036;stroke-width:1.0;"/><path d="M419.1541,518.6719 C418.2166,518.2344 417.6228,518.0938 416.7478,518.0938 C414.1228,518.0938 412.1228,520.1719 412.1228,522.8906 L412.1228,524.0156 C412.1228,526.5938 414.2322,528.4844 417.1228,528.4844 C418.3416,528.4844 419.4978,528.1875 420.2478,527.6406 C420.8259,527.2344 421.1541,526.7813 421.1541,526.3906 C421.1541,525.9375 420.7634,525.5469 420.2947,525.5469 C420.0759,525.5469 419.8728,525.625 419.6853,525.8125 C419.2322,526.2969 419.2322,526.2969 419.0447,526.3906 C418.6228,526.6563 417.9353,526.7813 417.1697,526.7813 C415.1228,526.7813 413.8259,525.6875 413.8259,523.9844 L413.8259,522.8906 C413.8259,521.1094 415.0759,519.7969 416.8103,519.7969 C417.3884,519.7969 417.9978,519.9531 418.4666,520.2031 C418.9509,520.4844 419.1228,520.7031 419.2166,521.1094 C419.2791,521.5156 419.3103,521.6406 419.4509,521.7656 C419.5916,521.9063 419.8259,522.0156 420.0447,522.0156 C420.3103,522.0156 420.5759,521.875 420.7478,521.6563 C420.8572,521.5 420.8884,521.3125 420.8884,520.8906 L420.8884,519.4688 C420.8884,519.0313 420.8728,518.9063 420.7791,518.75 C420.6228,518.4844 420.3416,518.3438 420.0447,518.3438 C419.7478,518.3438 419.5447,518.4375 419.3259,518.75 L419.1541,518.6719 Z " fill="#000000"/><text fill="#000000" font-family="sans-serif" font-size="12" lengthAdjust="spacing" textLength="25" x="430.8103" y="527.1543">Grid</text><line style="stroke:#A80036;stroke-width:1.5;" x1="402.8103" x2="457.8103" y1="539" y2="539"/><line style="stroke:#A80036;stroke-width:1.5;" x1="402.8103" x2="457.8103" y1="547" y2="547"/><!--MD5=[ca0de9db460dded64814f27ec9232532]
class TetrisGrid--><rect codeLine="5" fill="#FEFECE" filter="url(#f6m40mxy0f6at)" height="48" id="TetrisGrid" style="stroke:#A80036;stroke-width:1.5;" width="91" x="44.8103" y="257"/><ellipse cx="59.8103" cy="273" fill="#ADD1B2" rx="11" ry="11" style="stroke:#A80036;stroke-width:1.0;"/><path d="M62.1541,268.6719 C61.2166,268.2344 60.6228,268.0938 59.7478,268.0938 C57.1228,268.0938 55.1228,270.1719 55.1228,272.8906 L55.1228,274.0156 C55.1228,276.5938 57.2322,278.4844 60.1228,278.4844 C61.3416,278.4844 62.4978,278.1875 63.2478,277.6406 C63.8259,277.2344 64.1541,276.7813 64.1541,276.3906 C64.1541,275.9375 63.7634,275.5469 63.2947,275.5469 C63.0759,275.5469 62.8728,275.625 62.6853,275.8125 C62.2322,276.2969 62.2322,276.2969 62.0447,276.3906 C61.6228,276.6563 60.9353,276.7813 60.1697,276.7813 C58.1228,276.7813 56.8259,275.6875 56.8259,273.9844 L56.8259,272.8906 C56.8259,271.1094 58.0759,269.7969 59.8103,269.7969 C60.3884,269.7969 60.9978,269.9531 61.4666,270.2031 C61.9509,270.4844 62.1228,270.7031 62.2166,271.1094 C62.2791,271.5156 62.3103,271.6406 62.4509,271.7656 C62.5916,271.9063 62.8259,272.0156 63.0447,272.0156 C63.3103,272.0156 63.5759,271.875 63.7478,271.6563 C63.8572,271.5 63.8884,271.3125 63.8884,270.8906 L63.8884,269.4688 C63.8884,269.0313 63.8728,268.9063 63.7791,268.75 C63.6228,268.4844 63.3416,268.3438 63.0447,268.3438 C62.7478,268.3438 62.5447,268.4375 62.3259,268.75 L62.1541,268.6719 Z " fill="#000000"/><text fill="#000000" font-family="sans-serif" font-size="12" lengthAdjust="spacing" textLength="59" x="73.8103" y="277.1543">TetrisGrid</text><line style="stroke:#A80036;stroke-width:1.5;" x1="45.8103" x2="134.8103" y1="289" y2="289"/><line style="stroke:#A80036;stroke-width:1.5;" x1="45.8103" x2="134.8103" y1="297" y2="297"/><!--MD5=[68a0c021ad4fbab63794e91c3c368f48]
class Block--><rect codeLine="7" fill="#FEFECE" filter="url(#f6m40mxy0f6at)" height="48" id="Block" style="stroke:#A80036;stroke-width:1.5;" width="65" x="235.8103" y="507"/><ellipse cx="250.8103" cy="523" fill="#EB937F" rx="11" ry="11" style="stroke:#A80036;stroke-width:1.0;"/><path d="M249.6072,523.875 L251.0603,523.875 L251.0603,523.9844 C251.0603,524.3906 251.0915,524.5469 251.1697,524.7031 C251.3259,524.9531 251.6072,525.1094 251.904,525.1094 C252.154,525.1094 252.4197,524.9688 252.5759,524.75 C252.7009,524.5938 252.7322,524.4375 252.7322,523.9844 L252.7322,522.0625 C252.7322,521.9063 252.7322,521.8594 252.7165,521.7031 C252.654,521.2344 252.3415,520.9219 251.8884,520.9219 C251.6384,520.9219 251.3728,521.0625 251.2009,521.2813 C251.0915,521.4531 251.0603,521.6094 251.0603,522.0625 L251.0603,522.1875 L249.6072,522.1875 L249.6072,519.7813 L253.5915,519.7813 L253.5915,520.6406 C253.5915,521.0469 253.6228,521.2188 253.7009,521.375 C253.8728,521.625 254.154,521.7813 254.4353,521.7813 C254.7009,521.7813 254.9665,521.6406 255.1384,521.4219 C255.2478,521.25 255.279,521.1094 255.279,520.6406 L255.279,518.0938 L247.654,518.0938 C247.2165,518.0938 247.0915,518.1094 246.9353,518.2031 C246.6853,518.3594 246.529,518.6563 246.529,518.9375 C246.529,519.2188 246.6697,519.4688 246.8884,519.6406 C247.0447,519.75 247.2322,519.7813 247.654,519.7813 L247.904,519.7813 L247.904,526.2969 L247.654,526.2969 C247.2478,526.2969 247.0915,526.3125 246.9353,526.4219 C246.6853,526.5938 246.529,526.8594 246.529,527.1563 C246.529,527.4219 246.6697,527.6719 246.8884,527.8281 C247.029,527.9531 247.2634,528 247.654,528 L255.654,528 L255.654,525.4219 C255.654,524.9844 255.6228,524.8438 255.5447,524.6875 C255.3728,524.4375 255.0915,524.2813 254.8103,524.2813 C254.5447,524.2813 254.279,524.3906 254.1072,524.6406 C253.9978,524.7969 253.9665,524.9375 253.9665,525.4219 L253.9665,526.2969 L249.6072,526.2969 L249.6072,523.875 Z " fill="#000000"/><text fill="#000000" font-family="sans-serif" font-size="12" lengthAdjust="spacing" textLength="33" x="264.8103" y="527.1543">Block</text><line style="stroke:#A80036;stroke-width:1.5;" x1="236.8103" x2="299.8103" y1="539" y2="539"/><line style="stroke:#A80036;stroke-width:1.5;" x1="236.8103" x2="299.8103" y1="547" y2="547"/><!--MD5=[dd6fd93eff4772c94df27e6ea83a8fcd]
class BlockState--><rect codeLine="8" fill="#FEFECE" filter="url(#f6m40mxy0f6at)" height="48" id="BlockState" style="stroke:#A80036;stroke-width:1.5;" width="96" x="341.3103" y="382"/><ellipse cx="356.3103" cy="398" fill="#ADD1B2" rx="11" ry="11" style="stroke:#A80036;stroke-width:1.0;"/><path d="M358.6541,393.6719 C357.7166,393.2344 357.1228,393.0938 356.2478,393.0938 C353.6228,393.0938 351.6228,395.1719 351.6228,397.8906 L351.6228,399.0156 C351.6228,401.5938 353.7322,403.4844 356.6228,403.4844 C357.8416,403.4844 358.9978,403.1875 359.7478,402.6406 C360.3259,402.2344 360.6541,401.7813 360.6541,401.3906 C360.6541,400.9375 360.2634,400.5469 359.7947,400.5469 C359.5759,400.5469 359.3728,400.625 359.1853,400.8125 C358.7322,401.2969 358.7322,401.2969 358.5447,401.3906 C358.1228,401.6563 357.4353,401.7813 356.6697,401.7813 C354.6228,401.7813 353.3259,400.6875 353.3259,398.9844 L353.3259,397.8906 C353.3259,396.1094 354.5759,394.7969 356.3103,394.7969 C356.8884,394.7969 357.4978,394.9531 357.9666,395.2031 C358.4509,395.4844 358.6228,395.7031 358.7166,396.1094 C358.7791,396.5156 358.8103,396.6406 358.9509,396.7656 C359.0916,396.9063 359.3259,397.0156 359.5447,397.0156 C359.8103,397.0156 360.0759,396.875 360.2478,396.6563 C360.3572,396.5 360.3884,396.3125 360.3884,395.8906 L360.3884,394.4688 C360.3884,394.0313 360.3728,393.9063 360.2791,393.75 C360.1228,393.4844 359.8416,393.3438 359.5447,393.3438 C359.2478,393.3438 359.0447,393.4375 358.8259,393.75 L358.6541,393.6719 Z " fill="#000000"/><text fill="#000000" font-family="sans-serif" font-size="12" lengthAdjust="spacing" textLength="64" x="370.3103" y="402.1543">BlockState</text><line style="stroke:#A80036;stroke-width:1.5;" x1="342.3103" x2="436.3103" y1="414" y2="414"/><line style="stroke:#A80036;stroke-width:1.5;" x1="342.3103" x2="436.3103" y1="422" y2="422"/><!--MD5=[1508374716ee00fa1ee6a359abfaa791]
class FallingBlock--><rect codeLine="9" fill="#FEFECE" filter="url(#f6m40mxy0f6at)" height="48" id="FallingBlock" style="stroke:#A80036;stroke-width:1.5;" width="103" x="292.8103" y="257"/><ellipse cx="307.8103" cy="273" fill="#ADD1B2" rx="11" ry="11" style="stroke:#A80036;stroke-width:1.0;"/><path d="M310.1541,268.6719 C309.2166,268.2344 308.6228,268.0938 307.7478,268.0938 C305.1228,268.0938 303.1228,270.1719 303.1228,272.8906 L303.1228,274.0156 C303.1228,276.5938 305.2322,278.4844 308.1228,278.4844 C309.3416,278.4844 310.4978,278.1875 311.2478,277.6406 C311.8259,277.2344 312.1541,276.7813 312.1541,276.3906 C312.1541,275.9375 311.7634,275.5469 311.2947,275.5469 C311.0759,275.5469 310.8728,275.625 310.6853,275.8125 C310.2322,276.2969 310.2322,276.2969 310.0447,276.3906 C309.6228,276.6563 308.9353,276.7813 308.1697,276.7813 C306.1228,276.7813 304.8259,275.6875 304.8259,273.9844 L304.8259,272.8906 C304.8259,271.1094 306.0759,269.7969 307.8103,269.7969 C308.3884,269.7969 308.9978,269.9531 309.4666,270.2031 C309.9509,270.4844 310.1228,270.7031 310.2166,271.1094 C310.2791,271.5156 310.3103,271.6406 310.4509,271.7656 C310.5916,271.9063 310.8259,272.0156 311.0447,272.0156 C311.3103,272.0156 311.5759,271.875 311.7478,271.6563 C311.8572,271.5 311.8884,271.3125 311.8884,270.8906 L311.8884,269.4688 C311.8884,269.0313 311.8728,268.9063 311.7791,268.75 C311.6228,268.4844 311.3416,268.3438 311.0447,268.3438 C310.7478,268.3438 310.5447,268.4375 310.3259,268.75 L310.1541,268.6719 Z " fill="#000000"/><text fill="#000000" font-family="sans-serif" font-size="12" lengthAdjust="spacing" textLength="71" x="321.8103" y="277.1543">FallingBlock</text><line style="stroke:#A80036;stroke-width:1.5;" x1="293.8103" x2="394.8103" y1="289" y2="289"/><line style="stroke:#A80036;stroke-width:1.5;" x1="293.8103" x2="394.8103" y1="297" y2="297"/><!--MD5=[fea3dc74c7473bae0133d22265a91e2f]
class Cell--><rect codeLine="10" fill="#FEFECE" filter="url(#f6m40mxy0f6at)" height="48" id="Cell" style="stroke:#A80036;stroke-width:1.5;" width="54" x="403.3103" y="632"/><ellipse cx="418.3103" cy="648" fill="#ADD1B2" rx="11" ry="11" style="stroke:#A80036;stroke-width:1.0;"/><path d="M420.6541,643.6719 C419.7166,643.2344 419.1228,643.0938 418.2478,643.0938 C415.6228,643.0938 413.6228,645.1719 413.6228,647.8906 L413.6228,649.0156 C413.6228,651.5938 415.7322,653.4844 418.6228,653.4844 C419.8416,653.4844 420.9978,653.1875 421.7478,652.6406 C422.3259,652.2344 422.6541,651.7813 422.6541,651.3906 C422.6541,650.9375 422.2634,650.5469 421.7947,650.5469 C421.5759,650.5469 421.3728,650.625 421.1853,650.8125 C420.7322,651.2969 420.7322,651.2969 420.5447,651.3906 C420.1228,651.6563 419.4353,651.7813 418.6697,651.7813 C416.6228,651.7813 415.3259,650.6875 415.3259,648.9844 L415.3259,647.8906 C415.3259,646.1094 416.5759,644.7969 418.3103,644.7969 C418.8884,644.7969 419.4978,644.9531 419.9666,645.2031 C420.4509,645.4844 420.6228,645.7031 420.7166,646.1094 C420.7791,646.5156 420.8103,646.6406 420.9509,646.7656 C421.0916,646.9063 421.3259,647.0156 421.5447,647.0156 C421.8103,647.0156 422.0759,646.875 422.2478,646.6563 C422.3572,646.5 422.3884,646.3125 422.3884,645.8906 L422.3884,644.4688 C422.3884,644.0313 422.3728,643.9063 422.2791,643.75 C422.1228,643.4844 421.8416,643.3438 421.5447,643.3438 C421.2478,643.3438 421.0447,643.4375 420.8259,643.75 L420.6541,643.6719 Z " fill="#000000"/><text fill="#000000" font-family="sans-serif" font-size="12" lengthAdjust="spacing" textLength="22" x="432.3103" y="652.1543">Cell</text><line style="stroke:#A80036;stroke-width:1.5;" x1="404.3103" x2="456.3103" y1="664" y2="664"/><line style="stroke:#A80036;stroke-width:1.5;" x1="404.3103" x2="456.3103" y1="672" y2="672"/><!--MD5=[d2b7abf9c96dc4ec40aee6073e6213a9]
class TetrisController--><rect codeLine="12" fill="#FEFECE" filter="url(#f6m40mxy0f6at)" height="48" id="TetrisController" style="stroke:#A80036;stroke-width:1.5;" width="125" x="430.8103" y="257"/><ellipse cx="445.8103" cy="273" fill="#ADD1B2" rx="11" ry="11" style="stroke:#A80036;stroke-width:1.0;"/><path d="M448.1541,268.6719 C447.2166,268.2344 446.6228,268.0938 445.7478,268.0938 C443.1228,268.0938 441.1228,270.1719 441.1228,272.8906 L441.1228,274.0156 C441.1228,276.5938 443.2322,278.4844 446.1228,278.4844 C447.3416,278.4844 448.4978,278.1875 449.2478,277.6406 C449.8259,277.2344 450.1541,276.7813 450.1541,276.3906 C450.1541,275.9375 449.7634,275.5469 449.2947,275.5469 C449.0759,275.5469 448.8728,275.625 448.6853,275.8125 C448.2322,276.2969 448.2322,276.2969 448.0447,276.3906 C447.6228,276.6563 446.9353,276.7813 446.1697,276.7813 C444.1228,276.7813 442.8259,275.6875 442.8259,273.9844 L442.8259,272.8906 C442.8259,271.1094 444.0759,269.7969 445.8103,269.7969 C446.3884,269.7969 446.9978,269.9531 447.4666,270.2031 C447.9509,270.4844 448.1228,270.7031 448.2166,271.1094 C448.2791,271.5156 448.3103,271.6406 448.4509,271.7656 C448.5916,271.9063 448.8259,272.0156 449.0447,272.0156 C449.3103,272.0156 449.5759,271.875 449.7478,271.6563 C449.8572,271.5 449.8884,271.3125 449.8884,270.8906 L449.8884,269.4688 C449.8884,269.0313 449.8728,268.9063 449.7791,268.75 C449.6228,268.4844 449.3416,268.3438 449.0447,268.3438 C448.7478,268.3438 448.5447,268.4375 448.3259,268.75 L448.1541,268.6719 Z " fill="#000000"/><text fill="#000000" font-family="sans-serif" font-size="12" lengthAdjust="spacing" textLength="93" x="459.8103" y="277.1543">TetrisController</text><line style="stroke:#A80036;stroke-width:1.5;" x1="431.8103" x2="554.8103" y1="289" y2="289"/><line style="stroke:#A80036;stroke-width:1.5;" x1="431.8103" x2="554.8103" y1="297" y2="297"/><!--MD5=[7f383ca9729842f73bb49d1331202adb]
class LosingScreenController--><rect codeLine="13" fill="#FEFECE" filter="url(#f6m40mxy0f6at)" height="48" id="LosingScreenController" style="stroke:#A80036;stroke-width:1.5;" width="173" x="803.8103" y="257"/><ellipse cx="818.8103" cy="273" fill="#ADD1B2" rx="11" ry="11" style="stroke:#A80036;stroke-width:1.0;"/><path d="M821.1541,268.6719 C820.2166,268.2344 819.6228,268.0938 818.7478,268.0938 C816.1228,268.0938 814.1228,270.1719 814.1228,272.8906 L814.1228,274.0156 C814.1228,276.5938 816.2322,278.4844 819.1228,278.4844 C820.3416,278.4844 821.4978,278.1875 822.2478,277.6406 C822.8259,277.2344 823.1541,276.7813 823.1541,276.3906 C823.1541,275.9375 822.7634,275.5469 822.2947,275.5469 C822.0759,275.5469 821.8728,275.625 821.6853,275.8125 C821.2322,276.2969 821.2322,276.2969 821.0447,276.3906 C820.6228,276.6563 819.9353,276.7813 819.1697,276.7813 C817.1228,276.7813 815.8259,275.6875 815.8259,273.9844 L815.8259,272.8906 C815.8259,271.1094 817.0759,269.7969 818.8103,269.7969 C819.3884,269.7969 819.9978,269.9531 820.4666,270.2031 C820.9509,270.4844 821.1228,270.7031 821.2166,271.1094 C821.2791,271.5156 821.3103,271.6406 821.4509,271.7656 C821.5916,271.9063 821.8259,272.0156 822.0447,272.0156 C822.3103,272.0156 822.5759,271.875 822.7478,271.6563 C822.8572,271.5 822.8884,271.3125 822.8884,270.8906 L822.8884,269.4688 C822.8884,269.0313 822.8728,268.9063 822.7791,268.75 C822.6228,268.4844 822.3416,268.3438 822.0447,268.3438 C821.7478,268.3438 821.5447,268.4375 821.3259,268.75 L821.1541,268.6719 Z " fill="#000000"/><text fill="#000000" font-family="sans-serif" font-size="12" lengthAdjust="spacing" textLength="141" x="832.8103" y="277.1543">LosingScreenController</text><line style="stroke:#A80036;stroke-width:1.5;" x1="804.8103" x2="975.8103" y1="289" y2="289"/><line style="stroke:#A80036;stroke-width:1.5;" x1="804.8103" x2="975.8103" y1="297" y2="297"/><!--MD5=[b895df695719c8a90870be43670b9cce]
class TetrisViewFXML--><rect codeLine="15" fill="#FEFECE" filter="url(#f6m40mxy0f6at)" height="48" id="TetrisViewFXML" style="stroke:#A80036;stroke-width:1.5;" width="123" x="574.8103" y="382"/><ellipse cx="589.8103" cy="398" fill="#ADD1B2" rx="11" ry="11" style="stroke:#A80036;stroke-width:1.0;"/><path d="M592.1541,393.6719 C591.2166,393.2344 590.6228,393.0938 589.7478,393.0938 C587.1228,393.0938 585.1228,395.1719 585.1228,397.8906 L585.1228,399.0156 C585.1228,401.5938 587.2322,403.4844 590.1228,403.4844 C591.3416,403.4844 592.4978,403.1875 593.2478,402.6406 C593.8259,402.2344 594.1541,401.7813 594.1541,401.3906 C594.1541,400.9375 593.7634,400.5469 593.2947,400.5469 C593.0759,400.5469 592.8728,400.625 592.6853,400.8125 C592.2322,401.2969 592.2322,401.2969 592.0447,401.3906 C591.6228,401.6563 590.9353,401.7813 590.1697,401.7813 C588.1228,401.7813 586.8259,400.6875 586.8259,398.9844 L586.8259,397.8906 C586.8259,396.1094 588.0759,394.7969 589.8103,394.7969 C590.3884,394.7969 590.9978,394.9531 591.4666,395.2031 C591.9509,395.4844 592.1228,395.7031 592.2166,396.1094 C592.2791,396.5156 592.3103,396.6406 592.4509,396.7656 C592.5916,396.9063 592.8259,397.0156 593.0447,397.0156 C593.3103,397.0156 593.5759,396.875 593.7478,396.6563 C593.8572,396.5 593.8884,396.3125 593.8884,395.8906 L593.8884,394.4688 C593.8884,394.0313 593.8728,393.9063 593.7791,393.75 C593.6228,393.4844 593.3416,393.3438 593.0447,393.3438 C592.7478,393.3438 592.5447,393.4375 592.3259,393.75 L592.1541,393.6719 Z " fill="#000000"/><text fill="#000000" font-family="sans-serif" font-size="12" lengthAdjust="spacing" textLength="91" x="603.8103" y="402.1543">TetrisView.fxml</text><line style="stroke:#A80036;stroke-width:1.5;" x1="575.8103" x2="696.8103" y1="414" y2="414"/><line style="stroke:#A80036;stroke-width:1.5;" x1="575.8103" x2="696.8103" y1="422" y2="422"/><!--MD5=[424c8ed42f5db2948496b41490e57893]
class LosingScreenFXML--><rect codeLine="16" fill="#FEFECE" filter="url(#f6m40mxy0f6at)" height="48" id="LosingScreenFXML" style="stroke:#A80036;stroke-width:1.5;" width="142" x="736.3103" y="132"/><ellipse cx="751.3103" cy="148" fill="#ADD1B2" rx="11" ry="11" style="stroke:#A80036;stroke-width:1.0;"/><path d="M753.6541,143.6719 C752.7166,143.2344 752.1228,143.0938 751.2478,143.0938 C748.6228,143.0938 746.6228,145.1719 746.6228,147.8906 L746.6228,149.0156 C746.6228,151.5938 748.7322,153.4844 751.6228,153.4844 C752.8416,153.4844 753.9978,153.1875 754.7478,152.6406 C755.3259,152.2344 755.6541,151.7813 755.6541,151.3906 C755.6541,150.9375 755.2634,150.5469 754.7947,150.5469 C754.5759,150.5469 754.3728,150.625 754.1853,150.8125 C753.7322,151.2969 753.7322,151.2969 753.5447,151.3906 C753.1228,151.6563 752.4353,151.7813 751.6697,151.7813 C749.6228,151.7813 748.3259,150.6875 748.3259,148.9844 L748.3259,147.8906 C748.3259,146.1094 749.5759,144.7969 751.3103,144.7969 C751.8884,144.7969 752.4978,144.9531 752.9666,145.2031 C753.4509,145.4844 753.6228,145.7031 753.7166,146.1094 C753.7791,146.5156 753.8103,146.6406 753.9509,146.7656 C754.0916,146.9063 754.3259,147.0156 754.5447,147.0156 C754.8103,147.0156 755.0759,146.875 755.2478,146.6563 C755.3572,146.5 755.3884,146.3125 755.3884,145.8906 L755.3884,144.4688 C755.3884,144.0313 755.3728,143.9063 755.2791,143.75 C755.1228,143.4844 754.8416,143.3438 754.5447,143.3438 C754.2478,143.3438 754.0447,143.4375 753.8259,143.75 L753.6541,143.6719 Z " fill="#000000"/><text fill="#000000" font-family="sans-serif" font-size="12" lengthAdjust="spacing" textLength="110" x="765.3103" y="152.1543">LosingScreen.fxml</text><line style="stroke:#A80036;stroke-width:1.5;" x1="737.3103" x2="877.3103" y1="164" y2="164"/><line style="stroke:#A80036;stroke-width:1.5;" x1="737.3103" x2="877.3103" y1="172" y2="172"/><!--MD5=[dbd7da6723954fa911662fa62886b45d]
class TetrisGridChild--><rect codeLine="44" fill="#FEFECE" filter="url(#f6m40mxy0f6at)" height="48" id="TetrisGridChild" style="stroke:#A80036;stroke-width:1.5;" width="91" x="1193.8103" y="132"/><ellipse cx="1208.8103" cy="148" fill="#ADD1B2" rx="11" ry="11" style="stroke:#A80036;stroke-width:1.0;"/><path d="M1211.1541,143.6719 C1210.2166,143.2344 1209.6228,143.0938 1208.7478,143.0938 C1206.1228,143.0938 1204.1228,145.1719 1204.1228,147.8906 L1204.1228,149.0156 C1204.1228,151.5938 1206.2322,153.4844 1209.1228,153.4844 C1210.3416,153.4844 1211.4978,153.1875 1212.2478,152.6406 C1212.8259,152.2344 1213.1541,151.7813 1213.1541,151.3906 C1213.1541,150.9375 1212.7634,150.5469 1212.2947,150.5469 C1212.0759,150.5469 1211.8728,150.625 1211.6853,150.8125 C1211.2322,151.2969 1211.2322,151.2969 1211.0447,151.3906 C1210.6228,151.6563 1209.9353,151.7813 1209.1697,151.7813 C1207.1228,151.7813 1205.8259,150.6875 1205.8259,148.9844 L1205.8259,147.8906 C1205.8259,146.1094 1207.0759,144.7969 1208.8103,144.7969 C1209.3884,144.7969 1209.9978,144.9531 1210.4666,145.2031 C1210.9509,145.4844 1211.1228,145.7031 1211.2166,146.1094 C1211.2791,146.5156 1211.3103,146.6406 1211.4509,146.7656 C1211.5916,146.9063 1211.8259,147.0156 1212.0447,147.0156 C1212.3103,147.0156 1212.5759,146.875 1212.7478,146.6563 C1212.8572,146.5 1212.8884,146.3125 1212.8884,145.8906 L1212.8884,144.4688 C1212.8884,144.0313 1212.8728,143.9063 1212.7791,143.75 C1212.6228,143.4844 1212.3416,143.3438 1212.0447,143.3438 C1211.7478,143.3438 1211.5447,143.4375 1211.3259,143.75 L1211.1541,143.6719 Z " fill="#000000"/><text fill="#000000" font-family="sans-serif" font-size="12" lengthAdjust="spacing" textLength="59" x="1222.8103" y="152.1543">TetrisGrid</text><line style="stroke:#A80036;stroke-width:1.5;" x1="1194.8103" x2="1283.8103" y1="164" y2="164"/><line style="stroke:#A80036;stroke-width:1.5;" x1="1194.8103" x2="1283.8103" y1="172" y2="172"/><!--MD5=[ec7638f148a6bd830e076d0fd067d3d3]
class GridParent--><rect codeLine="45" fill="#FEFECE" filter="url(#f6m40mxy0f6at)" height="48" id="GridParent" style="stroke:#A80036;stroke-width:1.5;" width="57" x="1210.8103" y="7"/><ellipse cx="1225.8103" cy="23" fill="#ADD1B2" rx="11" ry="11" style="stroke:#A80036;stroke-width:1.0;"/><path d="M1228.1541,18.6719 C1227.2166,18.2344 1226.6228,18.0938 1225.7478,18.0938 C1223.1228,18.0938 1221.1228,20.1719 1221.1228,22.8906 L1221.1228,24.0156 C1221.1228,26.5938 1223.2322,28.4844 1226.1228,28.4844 C1227.3416,28.4844 1228.4978,28.1875 1229.2478,27.6406 C1229.8259,27.2344 1230.1541,26.7813 1230.1541,26.3906 C1230.1541,25.9375 1229.7634,25.5469 1229.2947,25.5469 C1229.0759,25.5469 1228.8728,25.625 1228.6853,25.8125 C1228.2322,26.2969 1228.2322,26.2969 1228.0447,26.3906 C1227.6228,26.6563 1226.9353,26.7813 1226.1697,26.7813 C1224.1228,26.7813 1222.8259,25.6875 1222.8259,23.9844 L1222.8259,22.8906 C1222.8259,21.1094 1224.0759,19.7969 1225.8103,19.7969 C1226.3884,19.7969 1226.9978,19.9531 1227.4666,20.2031 C1227.9509,20.4844 1228.1228,20.7031 1228.2166,21.1094 C1228.2791,21.5156 1228.3103,21.6406 1228.4509,21.7656 C1228.5916,21.9063 1228.8259,22.0156 1229.0447,22.0156 C1229.3103,22.0156 1229.5759,21.875 1229.7478,21.6563 C1229.8572,21.5 1229.8884,21.3125 1229.8884,20.8906 L1229.8884,19.4688 C1229.8884,19.0313 1229.8728,18.9063 1229.7791,18.75 C1229.6228,18.4844 1229.3416,18.3438 1229.0447,18.3438 C1228.7478,18.3438 1228.5447,18.4375 1228.3259,18.75 L1228.1541,18.6719 Z " fill="#000000"/><text fill="#000000" font-family="sans-serif" font-size="12" lengthAdjust="spacing" textLength="25" x="1239.8103" y="27.1543">Grid</text><line style="stroke:#A80036;stroke-width:1.5;" x1="1211.8103" x2="1266.8103" y1="39" y2="39"/><line style="stroke:#A80036;stroke-width:1.5;" x1="1211.8103" x2="1266.8103" y1="47" y2="47"/><!--MD5=[ece0558fab0297224378a20bd9e7593e]
link App to TetrisViewFXML--><path codeLine="18" d="M682.6263,55.119 C680.7223,108.105 673.9813,242.208 652.3103,352 C650.6923,360.199 648.3273,368.943 645.9093,376.916 " fill="none" id="App-to-TetrisViewFXML" style="stroke:#A80036;stroke-width:1.0;"/><polygon fill="#A80036" points="644.4033,381.769,650.8922,374.3599,645.886,376.9939,643.252,371.9877,644.4033,381.769" style="stroke:#A80036;stroke-width:1.0;"/><text fill="#000000" font-family="sans-serif" font-size="13" lengthAdjust="spacing" textLength="27" x="673.3103" y="223.0669">load</text><!--MD5=[ba97443da862d03ae6c91025373b0cfd]
link TetrisViewFXML to App--><path codeLine="20" d="M698.0403,400.891 C774.2823,393.066 904.8383,370.414 994.3103,305 C1047.9503,265.786 1057.2903,243.663 1076.3103,180 C1082.4203,159.559 1089.4003,148.842 1076.3103,132 C1031.6663,74.574 803.0483,44.701 716.5363,35.315 " fill="none" id="TetrisViewFXML-to-App" style="stroke:#A80036;stroke-width:1.0;stroke-dasharray:7.0,7.0;"/><polygon fill="#A80036" points="711.5373,34.779,720.0583,39.7178,716.5087,35.3133,720.9132,31.7636,711.5373,34.779" style="stroke:#A80036;stroke-width:1.0;"/><text fill="#000000" font-family="sans-serif" font-size="13" lengthAdjust="spacing" textLength="190" x="1068.3103" y="223.0669">pass TetrisController instance</text><!--MD5=[aae9bd2650889b4ab36fa530c0413d71]
link TetrisViewFXML to TetrisController--><path codeLine="19" d="M609.5333,381.968 C585.3033,361.127 549.6243,330.438 524.1973,308.567 " fill="none" id="TetrisViewFXML-to-TetrisController" style="stroke:#A80036;stroke-width:1.0;"/><polygon fill="#A80036" points="520.2073,305.135,524.4237,314.0357,523.9985,308.3948,529.6394,307.9697,520.2073,305.135" style="stroke:#A80036;stroke-width:1.0;"/><text fill="#000000" font-family="sans-serif" font-size="13" lengthAdjust="spacing" textLength="68" x="575.3103" y="348.0669">instantiate</text><!--MD5=[4bd00cd62df105575ddeef6798d3b333]
link TetrisController to TetrisViewFXML--><path codeLine="21" d="M474.2173,305.001 C464.6333,319.476 457.0273,337.999 467.3103,352 C490.6433,383.771 532.9873,397.013 569.4503,402.317 " fill="none" id="TetrisController-to-TetrisViewFXML" style="stroke:#A80036;stroke-width:1.0;stroke-dasharray:7.0,7.0;"/><polygon fill="#A80036" points="574.7843,403.043,566.4059,397.8658,569.83,402.3687,565.3271,405.7927,574.7843,403.043" style="stroke:#A80036;stroke-width:1.0;"/><text fill="#000000" font-family="sans-serif" font-size="13" lengthAdjust="spacing" textLength="79" x="468.3103" y="348.0669">update view</text><!--MD5=[6061c2081a95ce8047fbf6a2f5e18aaa]
link App to LosingScreenFXML--><path codeLine="23" d="M706.6333,55.135 C727.5903,75.923 758.3633,106.448 780.3643,128.272 " fill="none" id="App-to-LosingScreenFXML" style="stroke:#A80036;stroke-width:1.0;"/><polygon fill="#A80036" points="784.0913,131.968,780.5187,122.79,780.5415,128.4468,774.8847,128.4696,784.0913,131.968" style="stroke:#A80036;stroke-width:1.0;"/><text fill="#000000" font-family="sans-serif" font-size="13" lengthAdjust="spacing" textLength="27" x="754.3103" y="98.0669">load</text><!--MD5=[ebb056eee6b5cc611366a9764d6f240c]
link LosingScreenFXML to LosingScreenController--><path codeLine="24" d="M821.8143,180.207 C830.4933,193.929 841.8383,211.583 852.3103,227 C858.0003,235.376 864.3523,244.369 870.2103,252.525 " fill="none" id="LosingScreenFXML-to-LosingScreenController" style="stroke:#A80036;stroke-width:1.0;"/><polygon fill="#A80036" points="873.4063,256.96,871.3894,247.3199,870.483,252.9036,864.8992,251.9972,873.4063,256.96" style="stroke:#A80036;stroke-width:1.0;"/><text fill="#000000" font-family="sans-serif" font-size="13" lengthAdjust="spacing" textLength="68" x="853.3103" y="223.0669">instantiate</text><!--MD5=[fdcb269c5bd31fc08312e306111626fa]
link LosingScreenController to App--><path codeLine="25" d="M910.4803,256.788 C916.8323,248.045 923.0413,237.632 926.3103,227 C939.3643,184.548 925.7193,164.37 895.3103,132 C845.7103,79.201 762.5813,51.478 716.5363,39.487 " fill="none" id="LosingScreenController-to-App" style="stroke:#A80036;stroke-width:1.0;stroke-dasharray:7.0,7.0;"/><polygon fill="#A80036" points="711.6543,38.238,719.383,44.3427,716.4985,39.4765,721.3646,36.592,711.6543,38.238" style="stroke:#A80036;stroke-width:1.0;"/><text fill="#000000" font-family="sans-serif" font-size="13" lengthAdjust="spacing" textLength="137" x="930.3103" y="160.5669">call loadTetrisGame()</text><!--MD5=[22be1af150081aad0c9ed6ac2fff6b6b]
link App to TetrisGame--><path codeLine="27" d="M655.2393,32.194 C538.7203,33.286 97.3366,40.359 56.3103,85 C6,139.742 141.9432,151.982 223.2973,154.517 " fill="none" id="App-to-TetrisGame" style="stroke:#A80036;stroke-width:1.0;"/><polygon fill="#A80036" points="228.5753,154.67,219.6957,150.4094,223.5774,154.5243,219.4625,158.406,228.5753,154.67" style="stroke:#A80036;stroke-width:1.0;"/><text fill="#000000" font-family="sans-serif" font-size="13" lengthAdjust="spacing" textLength="178" x="57.3103" y="98.0669">create TetrisGame instance</text><!--MD5=[22be1af150081aad0c9ed6ac2fff6b6b]
link App to TetrisGame--><path codeLine="28" d="M655.1483,33.552 C567.1003,38.69 301.3783,56.456 276.3103,85 C266.5163,96.152 266.7403,112.575 269.6573,126.711 " fill="none" id="App-to-TetrisGame-1" style="stroke:#A80036;stroke-width:1.0;stroke-dasharray:7.0,7.0;"/><polygon fill="#A80036" points="270.8403,131.802,272.6998,122.1303,269.7088,126.9317,264.9074,123.9407,270.8403,131.802" style="stroke:#A80036;stroke-width:1.0;"/><text fill="#000000" font-family="sans-serif" font-size="13" lengthAdjust="spacing" textLength="190" x="277.3103" y="98.0669">pass TetrisController instance</text><!--MD5=[b36a5473976fff2f3377c62f73d2f648]
link TetrisGame to App--><path codeLine="42" d="M330.0493,143.615 C369.4193,134.174 425.0613,119.494 472.3103,102 C488.9033,95.856 491.7983,91.359 508.3103,85 C556.7333,66.351 614.6673,49.909 650.2233,40.459 " fill="none" id="TetrisGame-to-App" style="stroke:#A80036;stroke-width:1.0;stroke-dasharray:7.0,7.0;"/><polygon fill="#A80036" points="655.3033,39.116,645.5801,37.5475,650.4692,40.3931,647.6235,45.2821,655.3033,39.116" style="stroke:#A80036;stroke-width:1.0;"/><text fill="#000000" font-family="sans-serif" font-size="13" lengthAdjust="spacing" textLength="147" x="509.3103" y="98.0669">call loadLosingScreen()</text><!--MD5=[56b879d203dbe8d32cbed7b3e4717cc1]
link BlockState to Block--><path codeLine="30" d="M345.0193,430.104 C331.8553,438.353 318.0863,448.494 307.3103,460 C295.8613,472.224 286.5553,488.432 279.9093,502.173 " fill="none" id="BlockState-to-Block" style="stroke:#A80036;stroke-width:1.0;"/><polygon fill="#A80036" points="277.7583,506.729,285.2174,500.2977,279.8927,502.2074,277.9829,496.8827,277.7583,506.729" style="stroke:#A80036;stroke-width:1.0;"/><text fill="#000000" font-family="sans-serif" font-size="13" lengthAdjust="spacing" textLength="91" x="308.3103" y="473.0669">Block instance</text><!--MD5=[8c7de29f47112cd7588d714cdb3a29be]
link FallingBlock to BlockState--><path codeLine="31" d="M354.9193,305.004 C359.0133,314.239 363.5953,325.038 367.3103,335 C372.3793,348.593 377.2923,363.945 381.1853,376.801 " fill="none" id="FallingBlock-to-BlockState" style="stroke:#A80036;stroke-width:1.0;"/><polygon fill="#A80036" points="382.6793,381.778,383.9234,372.008,381.242,376.989,376.261,374.3077,382.6793,381.778" style="stroke:#A80036;stroke-width:1.0;"/><!--MD5=[930a1fafb73973a7b6cd808a532789ca]
link BlockState to Grid--><path codeLine="33" d="M397.0223,430.135 C403.8373,450.58 413.7903,480.441 421.0373,502.182 " fill="none" id="BlockState-to-Grid" style="stroke:#A80036;stroke-width:1.0;"/><polygon fill="#A80036" points="422.6333,506.968,423.5846,497.1652,421.0534,502.2242,415.9945,499.693,422.6333,506.968" style="stroke:#A80036;stroke-width:1.0;"/><text fill="#000000" font-family="sans-serif" font-size="13" lengthAdjust="spacing" textLength="140" x="413.3103" y="473.0669">converts Block to Grid</text><!--MD5=[d31bdcbbaabb43506266532ce7787e4b]
link Grid to Cell--><path codeLine="35" d="M430.3103,555.135 C430.3103,575.494 430.3103,605.1907 430.3103,626.908 " fill="none" id="Grid-to-Cell" style="stroke:#A80036;stroke-width:1.0;"/><polygon fill="#A80036" points="430.3103,631.9684,434.3103,622.9684,430.3103,626.9684,426.3103,622.9684,430.3103,631.9684" style="stroke:#A80036;stroke-width:1.0;"/><text fill="#000000" font-family="sans-serif" font-size="13" lengthAdjust="spacing" textLength="102" x="431.3103" y="598.0669">2-dim Cell array</text><!--MD5=[4e50b12fbce1281d3c6f1c085b381665]
link TetrisGame to TetrisGrid--><path codeLine="37" d="M228.4633,164.024 C177.5533,172.221 104.3825,187.577 87.3103,210 C78.3852,221.723 78.5774,238.023 81.2573,251.945 " fill="none" id="TetrisGame-to-TetrisGrid" style="stroke:#A80036;stroke-width:1.0;"/><polygon fill="#A80036" points="82.345,256.953,84.3433,247.309,81.2836,252.067,76.5256,249.0072,82.345,256.953" style="stroke:#A80036;stroke-width:1.0;"/><text fill="#000000" font-family="sans-serif" font-size="13" lengthAdjust="spacing" textLength="124" x="88.3103" y="223.0669">Tetris Grid instance</text><!--MD5=[cf4c5031ab4ea259665af20d1ac104b5]
link TetrisGame to FallingBlock--><path codeLine="38" d="M286.0833,180.081 C290.6233,194.076 297.2423,212.056 305.3103,227 C310.0263,235.737 316.0353,244.649 321.9153,252.612 " fill="none" id="TetrisGame-to-FallingBlock" style="stroke:#A80036;stroke-width:1.0;"/><polygon fill="#A80036" points="325.1603,256.931,322.9526,247.3328,322.1571,252.9334,316.5565,252.1379,325.1603,256.931" style="stroke:#A80036;stroke-width:1.0;"/><text fill="#000000" font-family="sans-serif" font-size="13" lengthAdjust="spacing" textLength="135" x="306.3103" y="223.0669">Falling Block instance</text><!--MD5=[fa0b1a2c7dfca0994aecee288260e8c7]
link TetrisGame to Block--><path codeLine="39" d="M271.1103,180.225 C259.7193,213.844 239.6743,278.264 232.3103,335 C224.5493,394.791 244.2563,464.039 257.4803,501.82 " fill="none" id="TetrisGame-to-Block" style="stroke:#A80036;stroke-width:1.0;"/><polygon fill="#A80036" points="259.2193,506.715,259.9757,496.8952,257.5455,502.0035,252.4372,499.5733,259.2193,506.715" style="stroke:#A80036;stroke-width:1.0;"/><text fill="#000000" font-family="sans-serif" font-size="13" lengthAdjust="spacing" textLength="125" x="233.3103" y="348.0669">Next Block instance</text><!--MD5=[b3fb6df738674629fcd25d37f5862452]
link TetrisGame to TetrisController--><path codeLine="41" d="M330.1163,164.048 C365.4883,170.996 412.2393,184.452 446.3103,210 C460.8303,220.888 472.3103,237.649 480.2893,252.04 " fill="none" id="TetrisGame-to-TetrisController" style="stroke:#A80036;stroke-width:1.0;stroke-dasharray:7.0,7.0;"/><polygon fill="#A80036" points="482.8593,256.818,482.1156,246.9973,480.4894,252.4153,475.0713,250.7891,482.8593,256.818" style="stroke:#A80036;stroke-width:1.0;"/><text fill="#000000" font-family="sans-serif" font-size="13" lengthAdjust="spacing" textLength="45" x="464.3103" y="223.0669">update</text><!--MD5=[2d01ea957d763f8e6c33bfeee2dac0b5]
reverse link GridParent to TetrisGridChild--><path codeLine="47" d="M1239.3103,75.172 C1239.3103,94.293 1239.3103,116.016 1239.3103,131.968 " fill="none" id="GridParent-backto-TetrisGridChild" style="stroke:#A80036;stroke-width:1.0;"/><polygon fill="none" points="1232.3103,75.135,1239.3103,55.135,1246.3103,75.135,1232.3103,75.135" style="stroke:#A80036;stroke-width:1.0;"/><text fill="#000000" font-family="sans-serif" font-size="13" lengthAdjust="spacing" textLength="52" x="1240.3103" y="98.0669">extends</text><!--MD5=[0d7bb79e7ecd75a7e0f94e0ea7a16b77]
@startuml
class App

class TetrisGame
class Grid
class TetrisGrid

enum Block
class BlockState
class FallingBlock
class Cell

class TetrisController
class LosingScreenController

class "TetrisView.fxml" as TetrisViewFXML
class "LosingScreen.fxml" as LosingScreenFXML

App - -> TetrisViewFXML : load
TetrisViewFXML - -> TetrisController : instantiate
TetrisViewFXML ..> App : pass TetrisController instance
TetrisController ..> TetrisViewFXML : update view

App - -> LosingScreenFXML : load
LosingScreenFXML - -> LosingScreenController : instantiate
LosingScreenController ..> App : call loadTetrisGame()

App - -> TetrisGame : create TetrisGame instance
App ..> TetrisGame : pass TetrisController instance

BlockState - -> Block : Block instance
FallingBlock - -> BlockState

BlockState - -> Grid : converts Block to Grid

Grid - -> Cell : 2-dim Cell array

TetrisGame - -> TetrisGrid : Tetris Grid instance
TetrisGame - -> FallingBlock : Falling Block instance
TetrisGame - -> Block : Next Block instance

TetrisGame ..> TetrisController : update
TetrisGame ..> App : call loadLosingScreen()

class "TetrisGrid" as TetrisGridChild
class "Grid" as GridParent

GridParent <|- - TetrisGridChild : extends
@enduml

PlantUML version 1.2021.17beta3(Unknown compile time)
(GPL source distribution)
Java Runtime: Java(TM) SE Runtime Environment
JVM: Java HotSpot(TM) 64-Bit Server VM
Default Encoding: UTF-8
Language: en
Country: US
--></g></svg>